<svg width="35" height="36" viewBox="0 0 35 36" fill="none" xmlns="http://www.w3.org/2000/svg">
<path d="M9.60457 4.8463C10.488 4.8463 11.2042 4.13009 11.2042 3.24661C11.2042 2.36313 10.488 1.64693 9.60457 1.64693C8.72109 1.64693 8.00488 2.36313 8.00488 3.24661C8.00488 4.13009 8.72109 4.8463 9.60457 4.8463Z" fill="#FDF5EC"/>
<path d="M1.98736 10.4134C2.66024 10.4134 3.19982 10.9594 3.19982 11.6323C3.19982 12.3051 2.6539 12.8447 1.98736 12.8447C1.32083 12.8447 0.768555 12.2988 0.768555 11.6323C0.768555 10.9657 1.31448 10.4134 1.98736 10.4134Z" fill="#FDF5EC"/>
<path d="M9.60478 21.6747H3.20605V24.106H9.60478V21.6747Z" fill="#FDF5EC"/>
<path d="M32.0064 1.64693C32.4634 1.64693 32.838 2.02146 32.838 2.47851C32.838 2.93556 32.4634 3.31009 32.0064 3.31009C31.5493 3.31009 31.1748 2.93556 31.1748 2.47851C31.1748 2.02146 31.5493 1.64693 32.0064 1.64693Z" fill="url(#paint0_linear_5878_29439)"/>
<path d="M32.0064 12.8447C32.4634 12.8447 32.838 13.2192 32.838 13.6763C32.838 14.1333 32.4634 14.5079 32.0064 14.5079C31.5493 14.5079 31.1748 14.1333 31.1748 13.6763C31.1748 13.2192 31.5493 12.8447 32.0064 12.8447Z" fill="url(#paint1_linear_5878_29439)"/>
<path d="M32.0064 32.8154C32.4634 32.8154 32.838 33.1899 32.838 33.6469C32.838 34.104 32.4634 34.4785 32.0064 34.4785C31.5493 34.4785 31.1748 34.104 31.1748 33.6469C31.1748 33.1899 31.5493 32.8154 32.0064 32.8154Z" fill="url(#paint2_linear_5878_29439)"/>
<path d="M19.7164 21.6747V20.5892C19.3292 20.6527 19.0753 20.7796 19.0753 21.1034C19.0753 21.2303 19.1388 21.3573 19.2022 21.4208C19.3927 21.4843 19.5196 21.6112 19.7164 21.6747ZM20.1608 23.2744V24.3599C20.6115 24.3599 20.8654 24.1694 20.8654 23.9092C20.8654 23.7822 20.8019 23.6553 20.675 23.522C20.548 23.4585 20.3576 23.395 20.1608 23.268V23.2744ZM19.6529 25.6422C19.2657 25.5787 18.8214 25.5152 18.4341 25.3883C18.0533 25.2613 17.666 25.0709 17.3486 24.8741L17.9898 23.5918C17.9898 23.5918 18.0533 23.6553 18.1802 23.7187C18.3072 23.7822 18.4341 23.8457 18.5611 23.9092C18.7515 23.9727 18.8785 24.0361 19.0753 24.0996C19.2657 24.1631 19.4625 24.2266 19.7164 24.2266V23.0776L19.3292 23.0141C19.0118 22.9506 18.815 22.8237 18.5611 22.6967C18.3707 22.5698 18.1802 22.5063 18.0469 22.3158C17.9199 22.1889 17.793 21.9984 17.7295 21.8651C17.666 21.6747 17.6026 21.4843 17.6026 21.224C17.6026 20.9066 17.666 20.6463 17.793 20.3924C17.9199 20.1385 18.0469 19.9417 18.2437 19.7513C18.4341 19.5608 18.6309 19.4339 18.8848 19.3704C19.1388 19.2434 19.399 19.18 19.6529 19.18V18.2849H20.2941V19.18C20.675 19.2434 21.0622 19.3069 21.3796 19.4339C21.697 19.5608 22.0207 19.6878 22.2746 19.8846L21.6335 21.097C21.6335 21.097 21.57 21.0336 21.5065 20.9701C21.4431 20.9066 21.3161 20.8431 21.1891 20.7796C21.0622 20.7162 20.9352 20.6527 20.7384 20.5892C20.548 20.5257 20.421 20.4622 20.2243 20.4622V21.681L20.4782 21.7445C20.7956 21.808 21.0558 21.935 21.3098 21.9984C21.5637 22.1254 21.7605 22.1889 21.9509 22.3793C22.1413 22.5063 22.2683 22.6967 22.3381 22.8935C22.4016 23.0839 22.4651 23.3442 22.4651 23.6616C22.4651 23.979 22.4016 24.3028 22.2746 24.4932C22.1477 24.7471 22.0207 24.9439 21.8303 25.0709C21.6398 25.1978 21.3796 25.3248 21.1257 25.3883C20.8717 25.4517 20.6115 25.5152 20.2941 25.5152V26.5372H19.6529V25.6422Z" fill="url(#paint3_linear_5878_29439)"/>
<path d="M9.60457 30.4476H8.00488V32.0473H9.60457V30.4476Z" fill="url(#paint4_linear_5878_29439)"/>
<path d="M9.60457 28.0798H8.00488V29.6795H9.60457V28.0798Z" fill="url(#paint5_linear_5878_29439)"/>
<path d="M9.60457 25.6422H8.00488V27.2418H9.60457V25.6422Z" fill="url(#paint6_linear_5878_29439)"/>
<path d="M7.17293 30.4476H5.57324V32.0473H7.17293V30.4476Z" fill="url(#paint7_linear_5878_29439)"/>
<path d="M7.17293 28.0798H5.57324V29.6795H7.17293V28.0798Z" fill="url(#paint8_linear_5878_29439)"/>
<path d="M7.17293 25.6422H5.57324V27.2418H7.17293V25.6422Z" fill="url(#paint9_linear_5878_29439)"/>
<path d="M6.40482 13.6128C6.86188 13.6128 7.2364 13.9873 7.2364 14.4444C7.2364 14.9014 6.86188 15.276 6.40482 15.276C5.94777 15.276 5.57324 14.9014 5.57324 14.4444C5.57324 13.9873 5.94777 13.6128 6.40482 13.6128Z" fill="url(#paint10_linear_5878_29439)"/>
<path d="M5.57377 6.44598C6.03082 6.44598 6.40535 6.82051 6.40535 7.27756C6.40535 7.73461 6.03082 8.10914 5.57377 8.10914C5.11672 8.10914 4.74219 7.73461 4.74219 7.27756C4.74219 6.82051 5.11672 6.44598 5.57377 6.44598Z" fill="url(#paint11_linear_5878_29439)"/>
<path d="M4.80574 30.4476H3.20605V32.0473H4.80574V30.4476Z" fill="url(#paint12_linear_5878_29439)"/>
<path d="M4.80574 28.0798H3.20605V29.6795H4.80574V28.0798Z" fill="url(#paint13_linear_5878_29439)"/>
<path d="M4.80574 25.6422H3.20605V27.2418H4.80574V25.6422Z" fill="url(#paint14_linear_5878_29439)"/>
<path d="M3.20561 0.0472488C3.66266 0.0472488 4.03719 0.421777 4.03719 0.87883C4.03719 1.33588 3.66266 1.71041 3.20561 1.71041C2.74855 1.71041 2.37402 1.33588 2.37402 0.87883C2.37402 0.421777 2.74855 0.0472488 3.20561 0.0472488Z" fill="url(#paint15_linear_5878_29439)"/>
<path d="M23.8747 10.8578H23.6843C23.2336 10.7308 22.9796 10.2801 23.1066 9.89926L24.9602 2.85939C24.2556 2.85939 23.0368 2.92287 21.5006 3.69097C19.5835 4.64951 17.3427 3.69097 15.8065 2.79591L17.3427 9.45491C17.4696 9.90561 17.1522 10.2865 16.765 10.4134C16.3143 10.5404 15.9334 10.223 15.8065 9.83578L13.7561 1.00579C13.6926 0.688393 13.8196 0.301168 14.1433 0.11073C14.4607 -0.0797088 14.8479 -0.0162301 15.1018 0.237688C16.0604 1.06927 18.8789 3.11966 20.7959 2.21825C23.8684 0.745524 26.1092 1.38667 26.1727 1.38667C26.5599 1.51362 26.8138 1.96433 26.6868 2.34521L24.6365 10.2167C24.5095 10.6674 24.1858 10.8578 23.8684 10.8578H23.8747Z" fill="url(#paint16_linear_5878_29439)"/>
<path d="M26.2426 10.9911C24.8334 10.9911 23.8113 10.8641 23.7479 10.8641C23.2972 10.8007 22.9798 10.4134 23.0432 9.96909C23.1067 9.51838 23.4939 9.20099 23.9383 9.26447C25.8554 9.4549 31.2956 9.58187 32.9016 7.53783C33.1555 7.22043 33.6697 7.15695 34.0506 7.41087C34.368 7.66478 34.4315 8.17897 34.1775 8.55984C33.092 9.90561 30.9782 10.7372 27.9692 10.9276C27.3916 10.9911 26.8203 10.9911 26.2426 10.9911Z" fill="url(#paint17_linear_5878_29439)"/>
<path d="M23.8747 10.8578C23.5573 10.8578 23.2336 10.6674 23.1066 10.3436C22.9162 9.95639 23.1066 9.44856 23.5573 9.3216C26.8202 7.97583 28.9975 4.13533 28.9975 4.07185C29.188 3.69097 29.7021 3.55766 30.083 3.75445C30.4639 3.94489 30.5972 4.45907 30.4004 4.83995C30.2735 5.03039 27.9057 9.25812 24.1286 10.7943C24.0652 10.8578 23.9382 10.8578 23.8747 10.8578Z" fill="url(#paint18_linear_5878_29439)"/>
<path d="M20.098 28.8479C16.5812 28.8479 13.6992 25.9659 13.6992 22.4492C13.6992 18.9324 16.5812 16.0504 20.098 16.0504C23.6147 16.0504 26.4967 18.9324 26.4967 22.4492C26.4967 25.9659 23.6147 28.8479 20.098 28.8479ZM20.098 17.6438C17.4762 17.6438 15.2989 19.8211 15.2989 22.4428C15.2989 25.0645 17.4128 27.2419 20.098 27.2419C22.7831 27.2419 24.897 25.0645 24.897 22.4428C24.897 19.8211 22.7197 17.6438 20.098 17.6438Z" fill="url(#paint19_linear_5878_29439)"/>
<path d="M19.844 35.2466C18.4348 35.2466 17.0954 35.1197 15.7496 34.7959C14.2134 34.415 12.8041 33.9009 11.5282 33.1962C11.141 33.0058 11.014 32.4916 11.2108 32.1107C11.4012 31.7299 11.9154 31.5965 12.2963 31.7933C13.4453 32.4345 14.6641 32.9423 16.0733 33.2661C17.2921 33.52 18.5046 33.6533 19.7869 33.6533C22.9228 33.6533 25.8682 32.8217 28.109 31.2855C30.2229 29.8128 31.3719 27.8957 31.3719 25.8453C31.3719 24.3726 30.7307 21.3002 29.385 18.2278C28.2995 15.733 26.3126 12.4702 23.4306 10.8705C22.2753 10.2294 21.0628 9.91196 19.844 9.91196C18.822 9.91196 17.7936 10.1024 16.8351 10.4261C16.6446 10.4896 16.4479 10.5531 16.2574 10.6166C12.9311 12.0893 10.8172 16.3742 9.85869 18.742C9.66825 19.1292 9.21755 19.3831 8.83667 19.1927C8.44945 19.0022 8.19553 18.5515 8.38597 18.1706C9.66825 14.9713 11.9027 10.7435 15.6163 9.14386C15.8067 9.08038 16.067 8.95342 16.2574 8.88994C17.4064 8.43924 18.6252 8.2488 19.844 8.2488C21.3802 8.2488 22.8529 8.62967 24.1987 9.39778H24.2622C27.5885 11.2514 29.7024 14.838 30.9212 17.5231C32.3939 20.8495 33.0985 24.0488 33.0985 25.7818C33.0985 28.34 31.6893 30.7713 29.1311 32.5678C26.6363 34.2944 23.3735 35.253 19.8504 35.253L19.844 35.2466Z" fill="url(#paint20_linear_5878_29439)"/>
<path d="M20.0978 32.0472C19.0123 32.0472 17.9839 31.9203 17.0254 31.7299C16.5746 31.6029 16.3207 31.2157 16.4477 30.7713C16.5746 30.3206 16.9619 30.0667 17.4062 30.1936C18.3013 30.3841 19.1963 30.511 20.1612 30.511C22.4655 30.511 24.6429 29.8699 26.2426 28.7844C27.7788 27.6989 28.6104 26.3531 28.6104 24.8804C28.6104 24.4297 28.9976 24.0488 29.4419 24.0488C29.8863 24.0488 30.2735 24.4361 30.2735 24.8804C30.2735 26.861 29.188 28.7209 27.2011 30.1302C25.2205 31.349 22.7195 32.0536 20.0978 32.0536V32.0472Z" fill="url(#paint21_linear_5878_29439)"/>
<path d="M9.60433 24.8741H3.20561C2.7549 24.8741 2.37402 24.4869 2.37402 24.0425V21.6112C2.37402 21.1669 2.76125 20.7796 3.20561 20.7796H9.60433C10.055 20.7796 10.4359 21.1669 10.4359 21.6112V24.0425C10.3724 24.4932 9.98521 24.8741 9.60433 24.8741ZM3.97371 23.2744H8.77276V22.4428H3.97371V23.2744Z" fill="url(#paint22_linear_5878_29439)"/>
<path d="M10.3096 35.2466H2.4381C1.09233 35.2466 0.00683594 34.1611 0.00683594 32.8154V20.0814C0.00683594 18.7356 1.09233 17.6501 2.4381 17.6501H10.373C11.7188 17.6501 12.8043 18.7356 12.8043 20.0814V32.8154C12.8043 34.1611 11.649 35.2466 10.3096 35.2466ZM2.4381 19.2434C1.9874 19.2434 1.60652 19.6307 1.60652 20.075V32.809C1.60652 33.2597 1.99374 33.6406 2.4381 33.6406H10.373C10.8237 33.6406 11.2046 33.2534 11.2046 32.809V20.075C11.2046 19.6243 10.8174 19.2434 10.373 19.2434H2.4381Z" fill="url(#paint23_linear_5878_29439)"/>
<path d="M1.98691 13.6763C0.901409 13.6763 0 12.7812 0 11.6957C0 10.6102 0.895061 9.70882 1.98691 9.70882C3.07876 9.70882 3.96747 10.6039 3.96747 11.6957C3.96747 12.7876 3.07241 13.6763 1.98691 13.6763ZM1.98691 11.245C1.79647 11.245 1.59968 11.4355 1.59968 11.6323C1.59968 11.829 1.79012 12.0131 1.98691 12.0131C2.18369 12.0131 2.36778 11.8227 2.36778 11.6323C2.36778 11.4418 2.17735 11.245 1.98691 11.245Z" fill="url(#paint24_linear_5878_29439)"/>
<path d="M9.60411 5.67788C8.25835 5.67788 7.17285 4.59238 7.17285 3.24662C7.17285 1.90085 8.25835 0.815353 9.60411 0.815353C10.9499 0.815353 12.0354 1.90085 12.0354 3.24662C12.0354 4.59238 10.8801 5.67788 9.60411 5.67788ZM9.60411 2.47852C9.15341 2.47852 8.77253 2.85939 8.77253 3.3101C8.77253 3.7608 9.15341 4.14168 9.60411 4.14168C10.0548 4.14168 10.4357 3.7608 10.4357 3.3101C10.3722 2.79591 9.98499 2.47852 9.60411 2.47852Z" fill="url(#paint25_linear_5878_29439)"/>
<defs>
<linearGradient id="paint0_linear_5878_29439" x1="31.1748" y1="1.64693" x2="32.4035" y2="3.58546" gradientUnits="userSpaceOnUse">
<stop stop-color="#FF8E4F"/>
<stop offset="1" stop-color="#EF592E"/>
</linearGradient>
<linearGradient id="paint1_linear_5878_29439" x1="31.1748" y1="12.8447" x2="32.4035" y2="14.7832" gradientUnits="userSpaceOnUse">
<stop stop-color="#FF8E4F"/>
<stop offset="1" stop-color="#EF592E"/>
</linearGradient>
<linearGradient id="paint2_linear_5878_29439" x1="31.1748" y1="32.8154" x2="32.4035" y2="34.7539" gradientUnits="userSpaceOnUse">
<stop stop-color="#FF8E4F"/>
<stop offset="1" stop-color="#EF592E"/>
</linearGradient>
<linearGradient id="paint3_linear_5878_29439" x1="17.3486" y1="18.2849" x2="24.0885" y2="24.8776" gradientUnits="userSpaceOnUse">
<stop stop-color="#FF8E4F"/>
<stop offset="1" stop-color="#EF592E"/>
</linearGradient>
<linearGradient id="paint4_linear_5878_29439" x1="8.00488" y1="30.4476" x2="9.18671" y2="32.3121" gradientUnits="userSpaceOnUse">
<stop stop-color="#FF8E4F"/>
<stop offset="1" stop-color="#EF592E"/>
</linearGradient>
<linearGradient id="paint5_linear_5878_29439" x1="8.00488" y1="28.0798" x2="9.18671" y2="29.9443" gradientUnits="userSpaceOnUse">
<stop stop-color="#FF8E4F"/>
<stop offset="1" stop-color="#EF592E"/>
</linearGradient>
<linearGradient id="paint6_linear_5878_29439" x1="8.00488" y1="25.6422" x2="9.18671" y2="27.5067" gradientUnits="userSpaceOnUse">
<stop stop-color="#FF8E4F"/>
<stop offset="1" stop-color="#EF592E"/>
</linearGradient>
<linearGradient id="paint7_linear_5878_29439" x1="5.57324" y1="30.4476" x2="6.75506" y2="32.3121" gradientUnits="userSpaceOnUse">
<stop stop-color="#FF8E4F"/>
<stop offset="1" stop-color="#EF592E"/>
</linearGradient>
<linearGradient id="paint8_linear_5878_29439" x1="5.57324" y1="28.0798" x2="6.75507" y2="29.9443" gradientUnits="userSpaceOnUse">
<stop stop-color="#FF8E4F"/>
<stop offset="1" stop-color="#EF592E"/>
</linearGradient>
<linearGradient id="paint9_linear_5878_29439" x1="5.57324" y1="25.6422" x2="6.75507" y2="27.5067" gradientUnits="userSpaceOnUse">
<stop stop-color="#FF8E4F"/>
<stop offset="1" stop-color="#EF592E"/>
</linearGradient>
<linearGradient id="paint10_linear_5878_29439" x1="5.57324" y1="13.6128" x2="6.80196" y2="15.5513" gradientUnits="userSpaceOnUse">
<stop stop-color="#FF8E4F"/>
<stop offset="1" stop-color="#EF592E"/>
</linearGradient>
<linearGradient id="paint11_linear_5878_29439" x1="4.74219" y1="6.44598" x2="5.97091" y2="8.38451" gradientUnits="userSpaceOnUse">
<stop stop-color="#FF8E4F"/>
<stop offset="1" stop-color="#EF592E"/>
</linearGradient>
<linearGradient id="paint12_linear_5878_29439" x1="3.20605" y1="30.4476" x2="4.38788" y2="32.3121" gradientUnits="userSpaceOnUse">
<stop stop-color="#FF8E4F"/>
<stop offset="1" stop-color="#EF592E"/>
</linearGradient>
<linearGradient id="paint13_linear_5878_29439" x1="3.20605" y1="28.0798" x2="4.38788" y2="29.9443" gradientUnits="userSpaceOnUse">
<stop stop-color="#FF8E4F"/>
<stop offset="1" stop-color="#EF592E"/>
</linearGradient>
<linearGradient id="paint14_linear_5878_29439" x1="3.20605" y1="25.6422" x2="4.38788" y2="27.5067" gradientUnits="userSpaceOnUse">
<stop stop-color="#FF8E4F"/>
<stop offset="1" stop-color="#EF592E"/>
</linearGradient>
<linearGradient id="paint15_linear_5878_29439" x1="2.37402" y1="0.0472488" x2="3.60275" y2="1.98578" gradientUnits="userSpaceOnUse">
<stop stop-color="#FF8E4F"/>
<stop offset="1" stop-color="#EF592E"/>
</linearGradient>
<linearGradient id="paint16_linear_5878_29439" x1="13.7402" y1="0" x2="21.0823" y2="13.847" gradientUnits="userSpaceOnUse">
<stop stop-color="#FF8E4F"/>
<stop offset="1" stop-color="#EF592E"/>
</linearGradient>
<linearGradient id="paint17_linear_5878_29439" x1="23.0352" y1="7.25419" x2="24.2612" y2="13.1027" gradientUnits="userSpaceOnUse">
<stop stop-color="#FF8E4F"/>
<stop offset="1" stop-color="#EF592E"/>
</linearGradient>
<linearGradient id="paint18_linear_5878_29439" x1="23.0332" y1="3.66415" x2="28.264" y2="12.2193" gradientUnits="userSpaceOnUse">
<stop stop-color="#FF8E4F"/>
<stop offset="1" stop-color="#EF592E"/>
</linearGradient>
<linearGradient id="paint19_linear_5878_29439" x1="13.6992" y1="16.0504" x2="23.1538" y2="30.9667" gradientUnits="userSpaceOnUse">
<stop stop-color="#FF8E4F"/>
<stop offset="1" stop-color="#EF592E"/>
</linearGradient>
<linearGradient id="paint20_linear_5878_29439" x1="8.32129" y1="8.2488" x2="28.954" y2="38.1161" gradientUnits="userSpaceOnUse">
<stop stop-color="#FF8E4F"/>
<stop offset="1" stop-color="#EF592E"/>
</linearGradient>
<linearGradient id="paint21_linear_5878_29439" x1="16.415" y1="24.0488" x2="20.6373" y2="35.5815" gradientUnits="userSpaceOnUse">
<stop stop-color="#FF8E4F"/>
<stop offset="1" stop-color="#EF592E"/>
</linearGradient>
<linearGradient id="paint22_linear_5878_29439" x1="2.37402" y1="20.7796" x2="4.3253" y2="26.8412" gradientUnits="userSpaceOnUse">
<stop stop-color="#FF8E4F"/>
<stop offset="1" stop-color="#EF592E"/>
</linearGradient>
<linearGradient id="paint23_linear_5878_29439" x1="0.00683594" y1="17.6501" x2="14.247" y2="33.9893" gradientUnits="userSpaceOnUse">
<stop stop-color="#FF8E4F"/>
<stop offset="1" stop-color="#EF592E"/>
</linearGradient>
<linearGradient id="paint24_linear_5878_29439" x1="0" y1="9.70882" x2="2.93111" y2="14.3332" gradientUnits="userSpaceOnUse">
<stop stop-color="#FF8E4F"/>
<stop offset="1" stop-color="#EF592E"/>
</linearGradient>
<linearGradient id="paint25_linear_5878_29439" x1="7.17285" y1="0.815353" x2="10.7652" y2="6.48296" gradientUnits="userSpaceOnUse">
<stop stop-color="#FF8E4F"/>
<stop offset="1" stop-color="#EF592E"/>
</linearGradient>
</defs>
</svg>
