<svg width="64" height="64" viewBox="0 0 64 64" fill="none" xmlns="http://www.w3.org/2000/svg">
<path d="M37.9858 44.2549H26.9612C26.6387 44.2549 26.377 43.9918 26.377 43.6677C26.377 43.3436 26.6387 43.0806 26.9612 43.0806H37.9858C38.3083 43.0806 38.5701 43.3436 38.5701 43.6677C38.5701 43.9918 38.3083 44.2549 37.9858 44.2549Z" fill="url(#paint0_linear_5878_28405)"/>
<path d="M47.7347 44.2549H45.4413C45.1188 44.2549 44.857 43.9918 44.857 43.6677C44.857 43.3436 45.1188 43.0806 45.4413 43.0806H47.7347C48.8635 43.079 49.7773 42.1607 49.7788 41.0264V39.9946C49.7835 39.6447 49.6947 39.2994 49.521 38.9957L48.3158 36.8233C48.0362 36.3184 47.6981 36.0193 47.2829 35.9089L42.5979 34.665C42.3915 34.6086 42.1951 34.5178 42.0175 34.3973L34.7867 29.6869C34.511 29.5068 34.204 29.427 33.7904 29.427H22.0468C21.503 29.4168 20.9787 29.6344 20.6017 30.029L15.7718 34.8826C15.3761 35.2623 15.1572 35.7915 15.1688 36.3411V41.0248C15.1704 42.1592 16.0842 43.0775 17.213 43.079H19.5072C19.8297 43.079 20.0914 43.3421 20.0914 43.6662C20.0914 43.9903 19.8297 44.2533 19.5072 44.2533H17.213C15.4399 44.2509 14.0034 42.8082 14.0003 41.0264V36.3411C13.9879 35.4823 14.3283 34.6564 14.9414 34.0583L19.7752 29.2015C20.3711 28.5862 21.1922 28.2441 22.0468 28.2558H33.7904C34.4338 28.2558 34.9527 28.3983 35.4224 28.7044L42.6548 33.4116C42.7288 33.4641 42.8113 33.504 42.8986 33.5299L47.5828 34.7754C48.312 34.9687 48.9024 35.4666 49.3387 36.2542L50.5423 38.4266C50.8134 38.9049 50.9528 39.4458 50.9474 39.9962V41.028C50.9442 42.8097 49.5077 44.2525 47.7347 44.2549Z" fill="url(#paint1_linear_5878_28405)"/>
<path d="M50.3616 40.4941C50.3071 40.4941 50.2518 40.4862 50.1996 40.4706C47.9973 39.831 46.585 38.8931 46.0015 37.6829C45.5972 36.846 45.5972 35.8784 46.0015 34.8834C46.102 34.575 46.4323 34.4074 46.7384 34.5084C47.0446 34.6094 47.2121 34.9413 47.1116 35.249C47.103 35.274 47.0937 35.2991 47.082 35.3226C46.8039 36.0099 46.7937 36.6307 47.0524 37.167C47.4855 38.0649 48.6532 38.7953 50.5236 39.3386C50.8337 39.4278 51.0136 39.7527 50.9241 40.0651C50.8524 40.3171 50.6226 40.4909 50.3616 40.4901V40.4941Z" fill="url(#paint2_linear_5878_28405)"/>
<path d="M39.7524 36.3184H18.5999C18.2774 36.3184 18.0156 36.0553 18.0156 35.7312C18.0156 35.5966 18.0616 35.4658 18.1457 35.3617L21.5804 31.1022C21.5921 31.0882 21.6038 31.0749 21.6162 31.0623C21.6739 31.0036 21.7424 30.9574 21.818 30.9269C21.8904 30.8964 21.9683 30.8799 22.047 30.8799H33.7984C33.92 30.8799 34.0384 30.9183 34.1373 30.9887L40.0913 35.2506C40.3538 35.4384 40.4154 35.8056 40.2284 36.0694C40.1186 36.2244 39.9417 36.316 39.7524 36.316V36.3184ZM19.8253 35.1441H37.9249L33.6115 32.0565H22.3158L19.8253 35.1441Z" fill="url(#paint3_linear_5878_28405)"/>
<path d="M25.3665 36.3184C25.044 36.3184 24.7822 36.0553 24.7822 35.7312V31.4678C24.7822 31.1437 25.044 30.8807 25.3665 30.8807C25.689 30.8807 25.9507 31.1437 25.9507 31.4678V35.7312C25.9507 36.0553 25.689 36.3184 25.3665 36.3184Z" fill="url(#paint4_linear_5878_28405)"/>
<path d="M29.6848 36.3184C29.3623 36.3184 29.1006 36.0553 29.1006 35.7312V31.4686C29.1006 31.1445 29.3623 30.8815 29.6848 30.8815C30.0074 30.8815 30.2691 31.1445 30.2691 31.4686V35.7312C30.2691 36.0553 30.0074 36.3184 29.6848 36.3184Z" fill="url(#paint5_linear_5878_28405)"/>
<path d="M23.2316 48C20.8501 48.0008 18.9197 46.0609 18.9189 43.6677C18.9182 41.2746 20.8486 39.3347 23.23 39.3339C25.6114 39.3331 27.5418 41.273 27.5426 43.6662C27.5403 46.0585 25.6114 47.9969 23.2316 48ZM23.2316 40.5089C21.4959 40.5082 20.0882 41.9228 20.0875 43.6669C20.0867 45.4111 21.4944 46.8257 23.23 46.8265C24.9656 46.8273 26.3733 45.4127 26.3741 43.6685V43.6669C26.3718 41.9235 24.9664 40.5113 23.2316 40.5089Z" fill="url(#paint6_linear_5878_28405)"/>
<path d="M41.7132 48C39.3318 48 37.4014 46.0601 37.4014 43.6669C37.4014 41.2738 39.3318 39.3339 41.7132 39.3339C44.0946 39.3339 46.025 41.2738 46.025 43.6669C46.0227 46.0593 44.0939 47.9977 41.7132 48ZM41.7132 40.5089C39.9776 40.5089 38.5699 41.9235 38.5699 43.6677C38.5699 45.4119 39.9776 46.8265 41.7132 46.8265C43.4488 46.8265 44.8565 45.4119 44.8565 43.6677C44.8542 41.9235 43.4481 40.5105 41.7132 40.5089Z" fill="url(#paint7_linear_5878_28405)"/>
<path d="M41.7132 45.7438C40.572 45.7438 39.6465 44.8138 39.6465 43.6669C39.6465 42.5201 40.572 41.59 41.7132 41.59C42.8545 41.59 43.7799 42.5201 43.7799 43.6669C43.7784 44.8138 42.8545 45.7423 41.7132 45.7438ZM41.7132 42.7651C41.217 42.7651 40.815 43.1691 40.815 43.6677C40.815 44.1664 41.217 44.5703 41.7132 44.5703C42.2094 44.5703 42.6114 44.1664 42.6114 43.6677C42.6106 43.1691 42.2087 42.7659 41.7132 42.7651Z" fill="url(#paint8_linear_5878_28405)"/>
<path d="M23.2316 45.7438C22.0903 45.7446 21.1648 44.8146 21.1641 43.6677C21.1633 42.5209 22.0888 41.5908 23.23 41.59C24.3713 41.59 25.2967 42.5193 25.2975 43.6662C25.2959 44.813 24.372 45.7423 23.2316 45.7438ZM23.2316 42.7651C22.7353 42.7643 22.3334 43.1683 22.3326 43.6669C22.3318 44.1656 22.7338 44.5696 23.23 44.5703C23.7262 44.5703 24.1282 44.1672 24.129 43.6685V43.6669C24.1282 43.1691 23.727 42.7659 23.2316 42.7651Z" fill="url(#paint9_linear_5878_28405)"/>
<path d="M17.0958 40.0275H14.5843C14.2617 40.0275 14 39.7645 14 39.4404C14 39.1163 14.2617 38.8532 14.5843 38.8532H16.5115V38.0422L14.8335 34.7417C14.6871 34.4528 14.8008 34.099 15.0883 33.9518C15.3757 33.8046 15.7279 33.9189 15.8743 34.2078L17.6154 37.6335C17.6575 37.7165 17.6801 37.8081 17.6801 37.9013V39.4404C17.6801 39.7645 17.4183 40.0275 17.0958 40.0275Z" fill="url(#paint10_linear_5878_28405)"/>
<path d="M32.3218 38.8579H29.6848C29.3623 38.8579 29.1006 38.5949 29.1006 38.2708C29.1006 37.9467 29.3623 37.6836 29.6848 37.6836H32.3218C32.6443 37.6836 32.9061 37.9467 32.9061 38.2708C32.9061 38.5949 32.6443 38.8579 32.3218 38.8579Z" fill="url(#paint11_linear_5878_28405)"/>
<path d="M42.7325 31.3308C42.5915 31.3308 42.4552 31.28 42.3485 31.1868C34.5046 24.3173 34.4594 18.7834 34.461 18.5509C34.4633 18.2432 34.7009 17.9903 35.0063 17.97C38.1917 17.7727 40.1018 15.0281 41.243 13.388C41.8865 12.4634 42.2098 12 42.7294 12C43.249 12 43.5746 12.4642 44.2181 13.388C45.3594 15.032 47.2695 17.7719 50.4549 17.97C50.7603 17.9903 50.9978 18.2432 51.0002 18.5509C51.0002 18.7857 50.9566 24.3173 43.1127 31.1876C43.0075 31.28 42.872 31.3308 42.7325 31.3308ZM35.6801 19.0785C35.7635 19.6445 35.9832 20.6442 36.562 21.9609C37.3869 23.8296 39.1234 26.712 42.7325 29.9609C46.3409 26.7105 48.0773 23.8296 48.9023 21.9609C49.4811 20.6489 49.7008 19.6453 49.7841 19.0785C46.3993 18.5704 44.3755 15.6629 43.2607 14.0605C43.087 13.8115 42.8844 13.5211 42.7325 13.3285C42.5767 13.5211 42.3781 13.8115 42.2044 14.0605C41.0888 15.6629 39.0649 18.5704 35.6801 19.0785Z" fill="url(#paint12_linear_5878_28405)"/>
<path d="M42.6643 26.4811C42.3418 26.4811 42.0801 26.2181 42.0801 25.894V24.7839C42.0801 24.4598 42.3418 24.1968 42.6643 24.1968C42.9868 24.1968 43.2486 24.4598 43.2486 24.7839V25.894C43.2486 26.2181 42.9868 26.4811 42.6643 26.4811Z" fill="url(#paint13_linear_5878_28405)"/>
<path d="M42.5743 25.3734H42.4582C41.5732 25.3288 40.5449 24.7299 40.5597 23.1892C40.5628 22.8651 40.8269 22.6044 41.1494 22.6076C41.472 22.6107 41.7314 22.8761 41.7282 23.2002C41.722 23.8374 41.9877 24.1741 42.5174 24.2007C43.0666 24.2281 43.6438 23.8774 43.6789 23.4914V23.4687C43.7802 22.6945 42.6584 22.2436 42.4325 22.1614C42.0656 22.0275 41.5327 21.8067 41.1393 21.438C40.6439 20.9738 40.4717 20.3835 40.6407 19.7314C41.0022 18.3364 42.1715 17.8526 43.1048 17.9864C44.2024 18.1485 44.9409 19.055 44.9004 20.1925C44.8887 20.5166 44.6176 20.7702 44.2951 20.7585C43.9726 20.7467 43.7202 20.4743 43.7319 20.1502C43.7552 19.5012 43.3167 19.2045 42.9342 19.149C42.5182 19.0879 41.9643 19.2805 41.7703 20.0273C41.7173 20.2324 41.6184 20.6144 42.8313 21.0575C43.354 21.2486 45.0406 21.997 44.8381 23.6096C44.736 24.6876 43.6096 25.3734 42.5743 25.3734Z" fill="url(#paint14_linear_5878_28405)"/>
<path d="M24.1136 29.4301C23.791 29.4301 23.5293 29.167 23.5293 28.843V23.9721C23.5316 22.0972 25.0429 20.5784 26.9087 20.5761H35.6172C35.9398 20.5761 36.2015 20.8391 36.2015 21.1632C36.2015 21.4873 35.9398 21.7504 35.6172 21.7504H26.9087C25.6887 21.7519 24.6994 22.7461 24.6978 23.9721V28.8422C24.6986 29.1663 24.4368 29.4293 24.1143 29.4301H24.1136Z" fill="url(#paint15_linear_5878_28405)"/>
<path d="M26.9086 29.4301C26.5861 29.4301 26.3244 29.1671 26.3244 28.843V23.9893C26.3236 23.9517 26.3259 23.9142 26.3322 23.8766C26.3508 23.7584 26.4054 23.6495 26.488 23.5634C26.5768 23.4718 26.6921 23.4123 26.8175 23.3928C26.8533 23.3873 26.8891 23.3849 26.9258 23.3857H36.9415C37.264 23.3857 37.5258 23.6488 37.5258 23.9729C37.5258 24.297 37.264 24.56 36.9415 24.56H27.4929V28.843C27.4929 29.1671 27.2311 29.4301 26.9086 29.4301Z" fill="url(#paint16_linear_5878_28405)"/>
<path d="M18.0372 17.9686C16.4132 17.9686 15.0576 16.6109 15.0576 14.9843C15.0576 13.3577 16.4132 12 18.0372 12C19.6611 12 21.0167 13.3577 21.0167 14.9843C21.0167 16.6109 19.6611 17.9686 18.0372 17.9686ZM18.0372 13.7677C17.3594 13.7677 16.7487 14.3121 16.7487 15.0582C16.7487 15.8043 17.2923 16.3487 18.0372 16.3487C18.7149 16.3487 19.3256 15.8043 19.3256 15.0582C19.3256 14.3121 18.7149 13.7677 18.0372 13.7677Z" fill="url(#paint17_linear_5878_28405)"/>
<path d="M29.4313 56.8625C28.0855 56.8625 27 55.777 27 54.4313C27 53.0855 28.0855 52 29.4313 52C30.777 52 31.8625 53.0855 31.8625 54.4313C31.8625 55.777 30.7136 56.8625 29.4313 56.8625ZM29.4313 53.6632C28.9806 53.6632 28.5997 54.044 28.5997 54.4947C28.5997 54.9454 28.9806 55.3263 29.4313 55.3263C29.882 55.3263 30.2628 54.9454 30.2628 54.4947C30.2628 54.044 29.8121 53.6632 29.4313 53.6632Z" fill="url(#paint18_linear_5878_28405)"/>
<path d="M15.8316 23C16.2886 23 16.6632 23.3745 16.6632 23.8316C16.6632 24.2886 16.2886 24.6632 15.8316 24.6632C15.3745 24.6632 15 24.2886 15 23.8316C15 23.3745 15.3745 23 15.8316 23Z" fill="url(#paint19_linear_5878_28405)"/>
<path d="M53.8316 28C54.2886 28 54.6632 28.3745 54.6632 28.8316C54.6632 29.2886 54.2886 29.6632 53.8316 29.6632C53.3745 29.6632 53 29.2886 53 28.8316C53 28.3745 53.3745 28 53.8316 28Z" fill="url(#paint20_linear_5878_28405)"/>
<path d="M8.83158 31C9.28863 31 9.66316 31.3745 9.66316 31.8316C9.66316 32.2886 9.28863 32.6632 8.83158 32.6632C8.37453 32.6632 8 32.2886 8 31.8316C8 31.3745 8.37453 31 8.83158 31Z" fill="url(#paint21_linear_5878_28405)"/>
<path d="M40.8316 51C41.2886 51 41.6632 51.3745 41.6632 51.8316C41.6632 52.2886 41.2886 52.6632 40.8316 52.6632C40.3745 52.6632 40 52.2886 40 51.8316C40 51.3745 40.3745 51 40.8316 51Z" fill="url(#paint22_linear_5878_28405)"/>
<path d="M57.9806 38.9738C56.8951 38.9738 56 38.0788 56 36.9869C56 35.8951 56.8951 35 57.9806 35C59.0661 35 59.9675 35.8951 59.9675 36.9869C59.9675 38.0788 59.0724 38.9738 57.9806 38.9738ZM57.9806 36.606C57.7901 36.606 57.5997 36.7965 57.5997 36.9869C57.5997 37.1773 57.7901 37.3678 57.9806 37.3678C58.171 37.3678 58.3678 37.1773 58.3678 36.9869C58.3678 36.733 58.1773 36.606 57.9806 36.606Z" fill="url(#paint23_linear_5878_28405)"/>
<path d="M31.8316 16C32.2886 16 32.6632 16.3745 32.6632 16.8316C32.6632 17.2886 32.2886 17.6632 31.8316 17.6632C31.3745 17.6632 31 17.2886 31 16.8316C31 16.3745 31.3745 16 31.8316 16Z" fill="url(#paint24_linear_5878_28405)"/>
<path d="M37.8316 7C38.2886 7 38.6632 7.37453 38.6632 7.83158C38.6632 8.28863 38.2886 8.66316 37.8316 8.66316C37.3745 8.66316 37 8.28863 37 7.83158C37 7.37453 37.3745 7 37.8316 7Z" fill="url(#paint25_linear_5878_28405)"/>
<defs>
<linearGradient id="paint0_linear_5878_28405" x1="26.377" y1="43.0806" x2="26.4936" y2="44.992" gradientUnits="userSpaceOnUse">
<stop stop-color="#FF8E4F"/>
<stop offset="1" stop-color="#EF592E"/>
</linearGradient>
<linearGradient id="paint1_linear_5878_28405" x1="14" y1="28.2555" x2="20.6722" y2="52.5646" gradientUnits="userSpaceOnUse">
<stop stop-color="#FF8E4F"/>
<stop offset="1" stop-color="#EF592E"/>
</linearGradient>
<linearGradient id="paint2_linear_5878_28405" x1="45.6982" y1="34.479" x2="50.3712" y2="40.9123" gradientUnits="userSpaceOnUse">
<stop stop-color="#FF8E4F"/>
<stop offset="1" stop-color="#EF592E"/>
</linearGradient>
<linearGradient id="paint3_linear_5878_28405" x1="18.0156" y1="30.8799" x2="19.3559" y2="39.5585" gradientUnits="userSpaceOnUse">
<stop stop-color="#FF8E4F"/>
<stop offset="1" stop-color="#EF592E"/>
</linearGradient>
<linearGradient id="paint4_linear_5878_28405" x1="24.7822" y1="30.8807" x2="27.4838" y2="31.7966" gradientUnits="userSpaceOnUse">
<stop stop-color="#FF8E4F"/>
<stop offset="1" stop-color="#EF592E"/>
</linearGradient>
<linearGradient id="paint5_linear_5878_28405" x1="29.1006" y1="30.8815" x2="31.802" y2="31.7975" gradientUnits="userSpaceOnUse">
<stop stop-color="#FF8E4F"/>
<stop offset="1" stop-color="#EF592E"/>
</linearGradient>
<linearGradient id="paint6_linear_5878_28405" x1="18.9189" y1="39.3339" x2="25.3347" y2="49.4063" gradientUnits="userSpaceOnUse">
<stop stop-color="#FF8E4F"/>
<stop offset="1" stop-color="#EF592E"/>
</linearGradient>
<linearGradient id="paint7_linear_5878_28405" x1="37.4014" y1="39.3339" x2="43.8171" y2="49.4063" gradientUnits="userSpaceOnUse">
<stop stop-color="#FF8E4F"/>
<stop offset="1" stop-color="#EF592E"/>
</linearGradient>
<linearGradient id="paint8_linear_5878_28405" x1="39.6465" y1="41.59" x2="42.7217" y2="46.4179" gradientUnits="userSpaceOnUse">
<stop stop-color="#FF8E4F"/>
<stop offset="1" stop-color="#EF592E"/>
</linearGradient>
<linearGradient id="paint9_linear_5878_28405" x1="21.1641" y1="41.59" x2="24.2392" y2="46.4179" gradientUnits="userSpaceOnUse">
<stop stop-color="#FF8E4F"/>
<stop offset="1" stop-color="#EF592E"/>
</linearGradient>
<linearGradient id="paint10_linear_5878_28405" x1="14" y1="33.8876" x2="19.008" y2="38.6232" gradientUnits="userSpaceOnUse">
<stop stop-color="#FF8E4F"/>
<stop offset="1" stop-color="#EF592E"/>
</linearGradient>
<linearGradient id="paint11_linear_5878_28405" x1="29.1006" y1="37.6836" x2="29.462" y2="39.5315" gradientUnits="userSpaceOnUse">
<stop stop-color="#FF8E4F"/>
<stop offset="1" stop-color="#EF592E"/>
</linearGradient>
<linearGradient id="paint12_linear_5878_28405" x1="34.4609" y1="12" x2="49.5678" y2="32.392" gradientUnits="userSpaceOnUse">
<stop stop-color="#FF8E4F"/>
<stop offset="1" stop-color="#EF592E"/>
</linearGradient>
<linearGradient id="paint13_linear_5878_28405" x1="42.0801" y1="24.1968" x2="43.9041" y2="25.6688" gradientUnits="userSpaceOnUse">
<stop stop-color="#FF8E4F"/>
<stop offset="1" stop-color="#EF592E"/>
</linearGradient>
<linearGradient id="paint14_linear_5878_28405" x1="40.5596" y1="17.965" x2="46.5931" y2="23.5446" gradientUnits="userSpaceOnUse">
<stop stop-color="#FF8E4F"/>
<stop offset="1" stop-color="#EF592E"/>
</linearGradient>
<linearGradient id="paint15_linear_5878_28405" x1="23.5293" y1="20.5761" x2="28.8853" y2="32.6702" gradientUnits="userSpaceOnUse">
<stop stop-color="#FF8E4F"/>
<stop offset="1" stop-color="#EF592E"/>
</linearGradient>
<linearGradient id="paint16_linear_5878_28405" x1="26.3242" y1="23.3856" x2="29.3483" y2="32.227" gradientUnits="userSpaceOnUse">
<stop stop-color="#FF8E4F"/>
<stop offset="1" stop-color="#EF592E"/>
</linearGradient>
<linearGradient id="paint17_linear_5878_28405" x1="15.0576" y1="12" x2="19.4701" y2="18.9504" gradientUnits="userSpaceOnUse">
<stop stop-color="#FF8E4F"/>
<stop offset="1" stop-color="#EF592E"/>
</linearGradient>
<linearGradient id="paint18_linear_5878_28405" x1="27" y1="52" x2="30.5924" y2="57.6676" gradientUnits="userSpaceOnUse">
<stop stop-color="#FF8E4F"/>
<stop offset="1" stop-color="#EF592E"/>
</linearGradient>
<linearGradient id="paint19_linear_5878_28405" x1="15" y1="23" x2="16.2287" y2="24.9385" gradientUnits="userSpaceOnUse">
<stop stop-color="#FF8E4F"/>
<stop offset="1" stop-color="#EF592E"/>
</linearGradient>
<linearGradient id="paint20_linear_5878_28405" x1="53" y1="28" x2="54.2287" y2="29.9385" gradientUnits="userSpaceOnUse">
<stop stop-color="#FF8E4F"/>
<stop offset="1" stop-color="#EF592E"/>
</linearGradient>
<linearGradient id="paint21_linear_5878_28405" x1="8" y1="31" x2="9.22872" y2="32.9385" gradientUnits="userSpaceOnUse">
<stop stop-color="#FF8E4F"/>
<stop offset="1" stop-color="#EF592E"/>
</linearGradient>
<linearGradient id="paint22_linear_5878_28405" x1="40" y1="51" x2="41.2287" y2="52.9385" gradientUnits="userSpaceOnUse">
<stop stop-color="#FF8E4F"/>
<stop offset="1" stop-color="#EF592E"/>
</linearGradient>
<linearGradient id="paint23_linear_5878_28405" x1="56" y1="35" x2="58.9378" y2="39.6275" gradientUnits="userSpaceOnUse">
<stop stop-color="#FF8E4F"/>
<stop offset="1" stop-color="#EF592E"/>
</linearGradient>
<linearGradient id="paint24_linear_5878_28405" x1="31" y1="16" x2="32.2287" y2="17.9385" gradientUnits="userSpaceOnUse">
<stop stop-color="#FF8E4F"/>
<stop offset="1" stop-color="#EF592E"/>
</linearGradient>
<linearGradient id="paint25_linear_5878_28405" x1="37" y1="7" x2="38.2287" y2="8.93853" gradientUnits="userSpaceOnUse">
<stop stop-color="#FF8E4F"/>
<stop offset="1" stop-color="#EF592E"/>
</linearGradient>
</defs>
</svg>
