<svg width="36" height="38" viewBox="0 0 36 38" fill="none" xmlns="http://www.w3.org/2000/svg">
<path d="M5.63043 2.88197C6.30331 2.88197 6.84923 3.42789 6.84923 4.10078C6.84923 4.77366 6.30331 5.31958 5.63043 5.31958C4.95754 5.31958 4.41797 4.77366 4.41797 4.10078C4.41797 3.42789 4.96389 2.88197 5.63043 2.88197Z" fill="#FDF5EC"/>
<path d="M32.0635 30.9145C32.7364 30.9145 33.2823 31.4604 33.2823 32.1333C33.2823 32.8062 32.7364 33.3458 32.0635 33.3458C31.3906 33.3458 30.8447 32.7998 30.8447 32.1333C30.8447 31.4668 31.3906 30.9145 32.0635 30.9145Z" fill="#FDF5EC"/>
<path d="M32.8316 9.34418C33.9298 9.34418 34.8122 10.2329 34.8122 11.3311C34.8122 12.4293 33.9235 13.318 32.8316 13.318C31.7398 13.318 30.8447 12.4293 30.8447 11.3311C30.8447 10.2329 31.7334 9.34418 32.8316 9.34418Z" fill="#FDF5EC"/>
<path d="M33.2828 3.71355C33.7398 3.71355 34.1143 4.08808 34.1143 4.54513C34.1143 5.00218 33.7398 5.37671 33.2828 5.37671C32.8257 5.37671 32.4512 5.00218 32.4512 4.54513C32.4512 4.08808 32.8257 3.71355 33.2828 3.71355Z" fill="url(#paint0_linear_5878_30537)"/>
<path d="M30.0826 1.28229C30.5396 1.28229 30.9141 1.65682 30.9141 2.11387C30.9141 2.57092 30.5396 2.94545 30.0826 2.94545C29.6255 2.94545 29.251 2.57092 29.251 2.11387C29.251 1.65682 29.6255 1.28229 30.0826 1.28229Z" fill="url(#paint1_linear_5878_30537)"/>
<path d="M29.2447 34.1139C29.7017 34.1139 30.0762 34.4884 30.0762 34.9454C30.0762 35.4025 29.7017 35.777 29.2447 35.777C28.7876 35.777 28.4131 35.4025 28.4131 34.9454C28.4131 34.4884 28.7876 34.1139 29.2447 34.1139Z" fill="url(#paint2_linear_5878_30537)"/>
<path d="M23.8785 21.1108C24.3355 21.1108 24.71 21.4854 24.71 21.9424C24.71 22.3995 24.3355 22.774 23.8785 22.774C23.4214 22.774 23.0469 22.3995 23.0469 21.9424C23.0469 21.4854 23.4214 21.1108 23.8785 21.1108Z" fill="url(#paint3_linear_5878_30537)"/>
<path d="M10.0484 14.0798C10.5054 14.0798 10.88 14.4543 10.88 14.9113C10.88 15.3684 10.5054 15.7429 10.0484 15.7429C9.59133 15.7429 9.2168 15.3684 9.2168 14.9113C9.2168 14.4543 9.59133 14.0798 10.0484 14.0798Z" fill="url(#paint4_linear_5878_30537)"/>
<path d="M3.64994 9.2807C4.10699 9.2807 4.48152 9.65523 4.48152 10.1123C4.48152 10.5693 4.10699 10.9439 3.64994 10.9439C3.19289 10.9439 2.81836 10.5693 2.81836 10.1123C2.81836 9.65523 3.19289 9.2807 3.64994 9.2807Z" fill="url(#paint5_linear_5878_30537)"/>
<path d="M32.0636 34.1139C30.9781 34.1139 30.083 33.2188 30.083 32.1333C30.083 31.0478 30.9781 30.1464 32.0636 30.1464C33.1491 30.1464 34.0505 31.0415 34.0505 32.1333C34.0505 33.2252 33.1554 34.1139 32.0636 34.1139ZM32.0636 31.7461C31.8731 31.7461 31.6827 31.9365 31.6827 32.1333C31.6827 32.3301 31.8731 32.5142 32.0636 32.5142C32.254 32.5142 32.4508 32.3237 32.4508 32.1333C32.4508 31.8794 32.2604 31.7461 32.0636 31.7461Z" fill="url(#paint6_linear_5878_30537)"/>
<path d="M7.23031 37.3132C7.03987 37.3132 6.84943 37.2498 6.65265 37.0593L0.253918 30.6606C0.126959 30.5336 0 30.2797 0 30.0829C0 29.8861 0.0634792 29.702 0.253918 29.5053L6.39873 23.3604C6.58917 23.17 6.78595 23.1065 7.03987 23.1065L21.8242 24.7062C22.4654 24.7697 23.1065 25.0236 23.6144 25.5378C23.8683 25.7282 24.0651 26.052 24.192 26.3059L30.4638 20.4785C31.0415 19.9008 31.8096 19.5834 32.6411 19.5834C33.4727 19.5834 34.2408 19.9008 34.8185 20.4785C35.3962 21.0561 35.7135 21.8242 35.7135 22.6558C35.7135 23.4874 35.3962 24.2555 34.8185 24.8332L24.0651 35.5866C23.9381 35.7136 23.6778 35.8405 23.4874 35.8405L9.53462 35.3263L7.80797 37.053C7.61754 37.2434 7.4271 37.3069 7.23031 37.3069V37.3132ZM1.91708 30.0766L7.16683 35.3263L8.63956 33.8536C8.76651 33.7266 9.02043 33.5997 9.21722 33.5997L23.17 34.1139L33.5997 23.6842C34.1773 23.1065 34.1773 22.148 33.5997 21.5703C33.3458 21.3164 32.9585 21.1196 32.5142 21.1196C32.127 21.1196 31.7461 21.2466 31.4287 21.5703L24.3888 28.3563C24.0714 29.702 22.8526 30.6606 21.4434 30.5971L13.318 30.2797C12.8736 30.2797 12.5499 29.8925 12.5499 29.4481C12.5499 29.0038 12.9371 28.68 13.3815 28.68L21.5068 29.0609C22.2115 29.0609 22.7891 28.6102 22.8526 27.9119V27.5945C22.7891 27.2771 22.6622 27.0169 22.4717 26.8264C22.2813 26.636 21.9575 26.509 21.6402 26.4392L7.23666 24.8395L1.92343 30.0893L1.91708 30.0766Z" fill="url(#paint7_linear_5878_30537)"/>
<path d="M3.47814 20.9734C2.13237 20.9734 1.04688 19.8879 1.04688 18.5421C1.04688 17.1963 2.13237 16.1108 3.47814 16.1108C4.8239 16.1108 5.9094 17.1963 5.9094 18.5421C5.9094 19.8879 4.8239 20.9734 3.47814 20.9734ZM3.47814 17.774C3.02743 17.774 2.64656 18.1612 2.64656 18.6056C2.64656 19.0499 3.02743 19.4372 3.47814 19.4372C3.92884 19.4372 4.30972 19.0563 4.30972 18.6056C4.30972 18.1549 3.92884 17.774 3.47814 17.774Z" fill="url(#paint8_linear_5878_30537)"/>
<path d="M5.54448 5.11084C4.72368 5.11084 4.04688 4.43512 4.04688 3.61084C4.04688 2.78656 4.72368 2.11084 5.54448 2.11084C6.36528 2.11084 7.04688 2.78656 7.04688 3.61084C7.04688 4.43512 6.37008 5.11084 5.54448 5.11084ZM5.54448 3.27538C5.40048 3.27538 5.25648 3.41915 5.25648 3.56292C5.25648 3.70669 5.40048 3.85525 5.54448 3.85525C5.68848 3.85525 5.83727 3.71148 5.83727 3.56292C5.83727 3.41435 5.74128 3.27538 5.54448 3.27538Z" fill="url(#paint9_linear_5878_30537)"/>
<path d="M32.8312 14.1432C31.295 14.1432 30.0127 12.8609 30.0127 11.3247C30.0127 9.78854 31.295 8.50625 32.8312 8.50625C34.3674 8.50625 35.6497 9.78854 35.6497 11.3247C35.6497 12.8609 34.3674 14.1432 32.8312 14.1432ZM32.8312 10.1123C32.19 10.1123 31.6124 10.6265 31.6124 11.3311C31.6124 12.0357 32.1266 12.5499 32.8312 12.5499C33.4723 12.5499 34.05 12.0357 34.05 11.3311C34.05 10.6265 33.5358 10.1123 32.8312 10.1123Z" fill="url(#paint10_linear_5878_30537)"/>
<g clip-path="url(#clip0_5878_30537)">
<path d="M9.81954 8.65165V7.8336C9.81954 7.80556 9.81439 7.78082 9.80409 7.75608L9.49512 8.86935H9.59296C9.71827 8.86935 9.81954 8.77205 9.81954 8.65165Z" fill="#E95D66"/>
<path d="M23.7544 3.83406H12.4252L11.2236 8.70607H24.9542L23.7544 3.83406Z" fill="url(#paint11_linear_5878_30537)"/>
<path d="M10.9837 12.2669C10.2113 12.2669 9.58301 12.8705 9.58301 13.6127C9.58301 14.3549 10.2113 14.9585 10.9837 14.9585C11.7561 14.9585 12.3844 14.3549 12.3844 13.6127C12.3844 12.8705 11.7561 12.2669 10.9837 12.2669Z" fill="url(#paint12_linear_5878_30537)"/>
<path d="M25.2142 12.2669C24.4417 12.2669 23.8135 12.8705 23.8135 13.6127C23.8135 14.3549 24.4417 14.9585 25.2142 14.9585C25.9866 14.9585 26.6149 14.3549 26.6149 13.6127C26.6149 12.8705 25.9866 12.2669 25.2142 12.2669Z" fill="url(#paint13_linear_5878_30537)"/>
<path d="M22.3588 13.7892H13.8447V14.477H22.3588V13.7892Z" fill="url(#paint14_linear_5878_30537)"/>
<path d="M22.3588 12.7023H13.8447V13.3901H22.3588V12.7023Z" fill="url(#paint15_linear_5878_30537)"/>
<path d="M29.8468 8.26077V6.00618H26.836V6.75991H26.1082L24.9546 2.61523H11.2103L10.0568 6.76156H9.37018V6.00783H6.35938V8.26242H9.37018V7.63403H9.81477L9.20883 9.8144L7.8665 11.6929V17.5347H9.31182V19.7563H12.6265V17.5347H23.5745V19.7563H26.8892V17.5347H28.3002V11.6929L26.9578 9.8144L26.3519 7.63403H26.8377V8.26242H29.8485L29.8468 8.26077ZM27.3526 6.50097H29.3335V7.76598H27.3526V6.50097ZM8.85522 7.76598H6.87434V6.50097H8.85522V7.76598ZM12.1098 19.2599H9.82507V17.5331H12.1098V19.2599ZM26.3742 19.2599H24.0895V17.5331H26.3742V19.2599ZM27.8453 17.0977L18.0799 17.1208L8.31795 17.0977V16.6326H27.8453V17.0977ZM27.8453 11.8282V16.1972H8.31795V11.8282L9.53497 10.1245H26.6283L27.8453 11.8282ZM26.4532 9.68741H9.71178L11.5588 3.0523H19.3313H24.6062L26.4532 9.68741Z" fill="url(#paint16_linear_5878_30537)"/>
</g>
<defs>
<linearGradient id="paint0_linear_5878_30537" x1="32.4512" y1="3.71355" x2="33.6799" y2="5.65208" gradientUnits="userSpaceOnUse">
<stop stop-color="#FF8E4F"/>
<stop offset="1" stop-color="#EF592E"/>
</linearGradient>
<linearGradient id="paint1_linear_5878_30537" x1="29.251" y1="1.28229" x2="30.4797" y2="3.22082" gradientUnits="userSpaceOnUse">
<stop stop-color="#FF8E4F"/>
<stop offset="1" stop-color="#EF592E"/>
</linearGradient>
<linearGradient id="paint2_linear_5878_30537" x1="28.4131" y1="34.1139" x2="29.6418" y2="36.0524" gradientUnits="userSpaceOnUse">
<stop stop-color="#FF8E4F"/>
<stop offset="1" stop-color="#EF592E"/>
</linearGradient>
<linearGradient id="paint3_linear_5878_30537" x1="23.0469" y1="21.1108" x2="24.2756" y2="23.0494" gradientUnits="userSpaceOnUse">
<stop stop-color="#FF8E4F"/>
<stop offset="1" stop-color="#EF592E"/>
</linearGradient>
<linearGradient id="paint4_linear_5878_30537" x1="9.2168" y1="14.0798" x2="10.4455" y2="16.0183" gradientUnits="userSpaceOnUse">
<stop stop-color="#FF8E4F"/>
<stop offset="1" stop-color="#EF592E"/>
</linearGradient>
<linearGradient id="paint5_linear_5878_30537" x1="2.81836" y1="9.2807" x2="4.04708" y2="11.2192" gradientUnits="userSpaceOnUse">
<stop stop-color="#FF8E4F"/>
<stop offset="1" stop-color="#EF592E"/>
</linearGradient>
<linearGradient id="paint6_linear_5878_30537" x1="30.083" y1="30.1464" x2="33.0141" y2="34.7708" gradientUnits="userSpaceOnUse">
<stop stop-color="#FF8E4F"/>
<stop offset="1" stop-color="#EF592E"/>
</linearGradient>
<linearGradient id="paint7_linear_5878_30537" x1="0" y1="19.5834" x2="8.29399" y2="45.9413" gradientUnits="userSpaceOnUse">
<stop stop-color="#FF8E4F"/>
<stop offset="1" stop-color="#EF592E"/>
</linearGradient>
<linearGradient id="paint8_linear_5878_30537" x1="1.04687" y1="16.1108" x2="4.63925" y2="21.7784" gradientUnits="userSpaceOnUse">
<stop stop-color="#FF8E4F"/>
<stop offset="1" stop-color="#EF592E"/>
</linearGradient>
<linearGradient id="paint9_linear_5878_30537" x1="4.04687" y1="2.11084" x2="6.26324" y2="5.60754" gradientUnits="userSpaceOnUse">
<stop stop-color="#FF8E4F"/>
<stop offset="1" stop-color="#EF592E"/>
</linearGradient>
<linearGradient id="paint10_linear_5878_30537" x1="30.0127" y1="8.50625" x2="34.1772" y2="15.0765" gradientUnits="userSpaceOnUse">
<stop stop-color="#FF8E4F"/>
<stop offset="1" stop-color="#EF592E"/>
</linearGradient>
<linearGradient id="paint11_linear_5878_30537" x1="11.2236" y1="3.83406" x2="12.9277" y2="11.4109" gradientUnits="userSpaceOnUse">
<stop stop-color="#FF8E4F"/>
<stop offset="1" stop-color="#EF592E"/>
</linearGradient>
<linearGradient id="paint12_linear_5878_30537" x1="9.58301" y1="12.2669" x2="11.5367" y2="15.4748" gradientUnits="userSpaceOnUse">
<stop stop-color="#FF8E4F"/>
<stop offset="1" stop-color="#EF592E"/>
</linearGradient>
<linearGradient id="paint13_linear_5878_30537" x1="23.8135" y1="12.2669" x2="25.7671" y2="15.4748" gradientUnits="userSpaceOnUse">
<stop stop-color="#FF8E4F"/>
<stop offset="1" stop-color="#EF592E"/>
</linearGradient>
<linearGradient id="paint14_linear_5878_30537" x1="13.8447" y1="13.7892" x2="13.9021" y2="14.9099" gradientUnits="userSpaceOnUse">
<stop stop-color="#FF8E4F"/>
<stop offset="1" stop-color="#EF592E"/>
</linearGradient>
<linearGradient id="paint15_linear_5878_30537" x1="13.8447" y1="12.7023" x2="13.9021" y2="13.8231" gradientUnits="userSpaceOnUse">
<stop stop-color="#FF8E4F"/>
<stop offset="1" stop-color="#EF592E"/>
</linearGradient>
<linearGradient id="paint16_linear_5878_30537" x1="6.35937" y1="2.61523" x2="17.0303" y2="25.6853" gradientUnits="userSpaceOnUse">
<stop stop-color="#FF8E4F"/>
<stop offset="1" stop-color="#EF592E"/>
</linearGradient>
<clipPath id="clip0_5878_30537">
<rect width="23.4874" height="17.1395" fill="white" transform="translate(6.35938 2.61523)"/>
</clipPath>
</defs>
</svg>
